<svg width="4800" height="3200" viewBox="0 0 4800 3200" fill="none" xmlns="http://www.w3.org/2000/svg">
<path d="M1035.47 1725V1473.36H1120.5C1140.24 1473.36 1156.38 1476.93 1168.91 1484.05C1181.52 1491.1 1190.86 1500.64 1196.92 1512.68C1202.98 1524.72 1206.01 1538.16 1206.01 1552.98C1206.01 1567.81 1202.98 1581.28 1196.92 1593.41C1190.94 1605.53 1181.69 1615.2 1169.15 1622.4C1156.62 1629.53 1140.57 1633.09 1120.99 1633.09H1060.05V1606.06H1120.01C1133.52 1606.06 1144.37 1603.73 1152.57 1599.06C1160.76 1594.39 1166.7 1588.08 1170.38 1580.14C1174.15 1572.11 1176.03 1563.06 1176.03 1552.98C1176.03 1542.91 1174.15 1533.9 1170.38 1525.95C1166.7 1518.01 1160.72 1511.78 1152.44 1507.28C1144.17 1502.69 1133.19 1500.39 1119.51 1500.39H1065.94V1725H1035.47ZM1255.1 1725V1473.36H1285.57V1697.97H1402.54V1725H1255.1ZM1475.93 1725H1443.98L1536.38 1473.36H1567.83L1660.23 1725H1628.29L1553.09 1513.17H1551.12L1475.93 1725ZM1487.72 1626.7H1616.49V1653.74H1487.72V1626.7ZM1890.09 1552H1859.62C1857.82 1543.24 1854.66 1535.54 1850.16 1528.9C1845.73 1522.27 1840.33 1516.7 1833.94 1512.19C1827.63 1507.6 1820.63 1504.16 1812.93 1501.87C1805.23 1499.58 1797.2 1498.43 1788.84 1498.43C1773.61 1498.43 1759.81 1502.28 1747.44 1509.98C1735.15 1517.68 1725.36 1529.02 1718.07 1544.01C1710.86 1559 1707.26 1577.39 1707.26 1599.18C1707.26 1620.97 1710.86 1639.36 1718.07 1654.35C1725.36 1669.34 1735.15 1680.69 1747.44 1688.38C1759.81 1696.08 1773.61 1699.93 1788.84 1699.93C1797.2 1699.93 1805.23 1698.79 1812.93 1696.49C1820.63 1694.2 1827.63 1690.8 1833.94 1686.3C1840.33 1681.71 1845.73 1676.1 1850.16 1669.46C1854.66 1662.75 1857.82 1655.05 1859.62 1646.36H1890.09C1887.8 1659.22 1883.62 1670.73 1877.56 1680.89C1871.49 1691.05 1863.96 1699.69 1854.95 1706.82C1845.94 1713.86 1835.82 1719.23 1824.6 1722.91C1813.46 1726.6 1801.54 1728.44 1788.84 1728.44C1767.38 1728.44 1748.3 1723.2 1731.59 1712.71C1714.88 1702.23 1701.73 1687.32 1692.15 1667.99C1682.56 1648.66 1677.77 1625.72 1677.77 1599.18C1677.77 1572.64 1682.56 1549.71 1692.15 1530.38C1701.73 1511.04 1714.88 1496.14 1731.59 1485.65C1748.3 1475.17 1767.38 1469.92 1788.84 1469.92C1801.54 1469.92 1813.46 1471.77 1824.6 1475.45C1835.82 1479.14 1845.94 1484.54 1854.95 1491.67C1863.96 1498.72 1871.49 1507.32 1877.56 1517.47C1883.62 1527.55 1887.8 1539.06 1890.09 1552ZM1939.33 1725V1473.36H2091.2V1500.39H1969.8V1585.42H2083.33V1612.45H1969.8V1697.97H2093.16V1725H1939.33ZM2146.12 1725V1473.36H2176.59V1585.42H2310.76V1473.36H2341.23V1725H2310.76V1612.45H2176.59V1725H2146.12ZM2614.56 1599.18C2614.56 1625.72 2609.77 1648.66 2600.18 1667.99C2590.6 1687.32 2577.45 1702.23 2560.74 1712.71C2544.03 1723.2 2524.94 1728.44 2503.48 1728.44C2482.02 1728.44 2462.94 1723.2 2446.23 1712.71C2429.52 1702.23 2416.37 1687.32 2406.79 1667.99C2397.2 1648.66 2392.41 1625.72 2392.41 1599.18C2392.41 1572.64 2397.2 1549.71 2406.79 1530.38C2416.37 1511.04 2429.52 1496.14 2446.23 1485.65C2462.94 1475.17 2482.02 1469.92 2503.48 1469.92C2524.94 1469.92 2544.03 1475.17 2560.74 1485.65C2577.45 1496.14 2590.6 1511.04 2600.18 1530.38C2609.77 1549.71 2614.56 1572.64 2614.56 1599.18ZM2585.07 1599.18C2585.07 1577.39 2581.42 1559 2574.13 1544.01C2566.93 1529.02 2557.14 1517.68 2544.77 1509.98C2532.48 1502.28 2518.72 1498.43 2503.48 1498.43C2488.25 1498.43 2474.45 1502.28 2462.08 1509.98C2449.79 1517.68 2440 1529.02 2432.71 1544.01C2425.5 1559 2421.9 1577.39 2421.9 1599.18C2421.9 1620.97 2425.5 1639.36 2432.71 1654.35C2440 1669.34 2449.79 1680.69 2462.08 1688.38C2474.45 1696.08 2488.25 1699.93 2503.48 1699.93C2518.72 1699.93 2532.48 1696.08 2544.77 1688.38C2557.14 1680.69 2566.93 1669.34 2574.13 1654.35C2581.42 1639.36 2585.07 1620.97 2585.07 1599.18ZM2665.79 1725V1473.36H2696.27V1697.97H2813.24V1725H2665.79ZM2938.07 1725H2860.42V1473.36H2941.51C2965.92 1473.36 2986.81 1478.4 3004.18 1488.48C3021.54 1498.47 3034.85 1512.85 3044.11 1531.6C3053.36 1550.28 3057.99 1572.64 3057.99 1598.69C3057.99 1624.9 3053.32 1647.47 3043.99 1666.39C3034.65 1685.23 3021.05 1699.73 3003.19 1709.89C2985.34 1719.96 2963.63 1725 2938.07 1725ZM2890.89 1697.97H2936.11C2956.91 1697.97 2974.15 1693.96 2987.83 1685.93C3001.51 1677.9 3011.71 1666.47 3018.43 1651.65C3025.15 1636.82 3028.5 1619.17 3028.5 1598.69C3028.5 1578.38 3025.19 1560.89 3018.55 1546.23C3011.92 1531.48 3002.01 1520.18 2988.82 1512.31C2975.63 1504.37 2959.21 1500.39 2939.55 1500.39H2890.89V1697.97ZM3109.11 1725V1473.36H3260.97V1500.39H3139.58V1585.42H3253.11V1612.45H3139.58V1697.97H3262.94V1725H3109.11ZM3315.9 1725V1473.36H3400.92C3420.58 1473.36 3436.72 1476.72 3449.33 1483.44C3461.95 1490.07 3471.28 1499.21 3477.35 1510.84C3483.41 1522.47 3486.44 1535.7 3486.44 1550.53C3486.44 1565.35 3483.41 1578.5 3477.35 1589.97C3471.28 1601.43 3461.99 1610.44 3449.45 1617C3436.92 1623.47 3420.91 1626.7 3401.41 1626.7H3332.61V1599.18H3400.43C3413.86 1599.18 3424.68 1597.22 3432.87 1593.28C3441.14 1589.35 3447.12 1583.78 3450.81 1576.57C3454.57 1569.28 3456.46 1560.6 3456.46 1550.53C3456.46 1540.45 3454.57 1531.64 3450.81 1524.11C3447.04 1516.57 3441.02 1510.76 3432.74 1506.66C3424.47 1502.48 3413.54 1500.39 3399.94 1500.39H3346.37V1725H3315.9ZM3434.34 1611.96L3496.27 1725H3460.88L3399.94 1611.96H3434.34ZM3571.62 1473.36L3569.16 1654.23H3540.65L3538.2 1473.36H3571.62ZM3554.91 1726.97C3548.85 1726.97 3543.64 1724.8 3539.3 1720.45C3534.96 1716.11 3532.79 1710.91 3532.79 1704.85C3532.79 1698.79 3534.96 1693.59 3539.3 1689.25C3543.64 1684.9 3548.85 1682.73 3554.91 1682.73C3560.97 1682.73 3566.17 1684.9 3570.51 1689.25C3574.85 1693.59 3577.02 1698.79 3577.02 1704.85C3577.02 1708.86 3576 1712.55 3573.95 1715.91C3571.99 1719.27 3569.32 1721.97 3565.97 1724.02C3562.69 1725.98 3559 1726.97 3554.91 1726.97ZM3667.92 1473.36L3665.46 1654.23H3636.95L3634.5 1473.36H3667.92ZM3651.21 1726.97C3645.14 1726.97 3639.94 1724.8 3635.6 1720.45C3631.26 1716.11 3629.09 1710.91 3629.09 1704.85C3629.09 1698.79 3631.26 1693.59 3635.6 1689.25C3639.94 1684.9 3645.14 1682.73 3651.21 1682.73C3657.27 1682.73 3662.47 1684.9 3666.81 1689.25C3671.15 1693.59 3673.32 1698.79 3673.32 1704.85C3673.32 1708.86 3672.3 1712.55 3670.25 1715.91C3668.28 1719.27 3665.62 1721.97 3662.26 1724.02C3658.99 1725.98 3655.3 1726.97 3651.21 1726.97ZM3764.21 1473.36L3761.76 1654.23H3733.25L3730.79 1473.36H3764.21ZM3747.5 1726.97C3741.44 1726.97 3736.24 1724.8 3731.9 1720.45C3727.56 1716.11 3725.39 1710.91 3725.39 1704.85C3725.39 1698.79 3727.56 1693.59 3731.9 1689.25C3736.24 1684.9 3741.44 1682.73 3747.5 1682.73C3753.57 1682.73 3758.77 1684.9 3763.11 1689.25C3767.45 1693.59 3769.62 1698.79 3769.62 1704.85C3769.62 1708.86 3768.6 1712.55 3766.55 1715.91C3764.58 1719.27 3761.92 1721.97 3758.56 1724.02C3755.29 1725.98 3751.6 1726.97 3747.5 1726.97Z" fill="black"/>
</svg>
